<mxfile host="65bd71144e">
    <diagram id="1YfQ6g3PK0X-qzISnVMA" name="Page-1">
        <mxGraphModel dx="826" dy="862" grid="0" gridSize="10" guides="1" tooltips="1" connect="1" arrows="1" fold="1" page="1" pageScale="1" pageWidth="1100" pageHeight="850" background="none" math="1" shadow="0">
            <root>
                <mxCell id="0"/>
                <mxCell id="1" parent="0"/>
                <mxCell id="6" value="User" style="swimlane;fontStyle=0;childLayout=stackLayout;horizontal=1;startSize=26;horizontalStack=0;resizeParent=1;resizeParentMax=0;resizeLast=0;collapsible=1;marginBottom=0;align=center;fontSize=14;fontColor=default;" parent="1" vertex="1">
                    <mxGeometry x="75" y="47" width="107" height="146" as="geometry"/>
                </mxCell>
                <mxCell id="10" value="username" style="text;strokeColor=none;fillColor=none;spacingLeft=4;spacingRight=4;overflow=hidden;rotatable=0;points=[[0,0.5],[1,0.5]];portConstraint=eastwest;fontSize=12;fontColor=default;fontStyle=4" parent="6" vertex="1">
                    <mxGeometry y="26" width="107" height="30" as="geometry"/>
                </mxCell>
                <mxCell id="7" value="first_name        " style="text;strokeColor=none;fillColor=none;spacingLeft=4;spacingRight=4;overflow=hidden;rotatable=0;points=[[0,0.5],[1,0.5]];portConstraint=eastwest;fontSize=12;fontColor=default;" parent="6" vertex="1">
                    <mxGeometry y="56" width="107" height="30" as="geometry"/>
                </mxCell>
                <mxCell id="8" value="last_name" style="text;strokeColor=none;fillColor=none;spacingLeft=4;spacingRight=4;overflow=hidden;rotatable=0;points=[[0,0.5],[1,0.5]];portConstraint=eastwest;fontSize=12;fontColor=default;" parent="6" vertex="1">
                    <mxGeometry y="86" width="107" height="30" as="geometry"/>
                </mxCell>
                <mxCell id="12" value="password" style="text;strokeColor=none;fillColor=none;spacingLeft=4;spacingRight=4;overflow=hidden;rotatable=0;points=[[0,0.5],[1,0.5]];portConstraint=eastwest;fontSize=12;fontColor=default;" parent="6" vertex="1">
                    <mxGeometry y="116" width="107" height="30" as="geometry"/>
                </mxCell>
                <mxCell id="15" value="Book" style="swimlane;fontStyle=0;childLayout=stackLayout;horizontal=1;startSize=26;horizontalStack=0;resizeParent=1;resizeParentMax=0;resizeLast=0;collapsible=1;marginBottom=0;align=center;fontSize=14;fontColor=default;rounded=0;" parent="1" vertex="1">
                    <mxGeometry x="738" y="56" width="134" height="236" as="geometry"/>
                </mxCell>
                <mxCell id="16" value="ISBN" style="text;strokeColor=none;fillColor=none;spacingLeft=4;spacingRight=4;overflow=hidden;rotatable=0;points=[[0,0.5],[1,0.5]];portConstraint=eastwest;fontSize=12;fontColor=default;fontStyle=4" parent="15" vertex="1">
                    <mxGeometry y="26" width="134" height="30" as="geometry"/>
                </mxCell>
                <mxCell id="17" value="name" style="text;strokeColor=none;fillColor=none;spacingLeft=4;spacingRight=4;overflow=hidden;rotatable=0;points=[[0,0.5],[1,0.5]];portConstraint=eastwest;fontSize=12;fontColor=default;" parent="15" vertex="1">
                    <mxGeometry y="56" width="134" height="30" as="geometry"/>
                </mxCell>
                <mxCell id="156" value="{author}" style="text;strokeColor=none;fillColor=none;spacingLeft=4;spacingRight=4;overflow=hidden;rotatable=0;points=[[0,0.5],[1,0.5]];portConstraint=eastwest;fontSize=12;fontColor=default;" parent="15" vertex="1">
                    <mxGeometry y="86" width="134" height="30" as="geometry"/>
                </mxCell>
                <mxCell id="18" value="{genre}" style="text;strokeColor=none;fillColor=none;spacingLeft=4;spacingRight=4;overflow=hidden;rotatable=0;points=[[0,0.5],[1,0.5]];portConstraint=eastwest;fontSize=12;fontColor=default;" parent="15" vertex="1">
                    <mxGeometry y="116" width="134" height="30" as="geometry"/>
                </mxCell>
                <mxCell id="20" value="page_num" style="text;strokeColor=none;fillColor=none;spacingLeft=4;spacingRight=4;overflow=hidden;rotatable=0;points=[[0,0.5],[1,0.5]];portConstraint=eastwest;fontSize=12;fontColor=default;" parent="15" vertex="1">
                    <mxGeometry y="146" width="134" height="30" as="geometry"/>
                </mxCell>
                <mxCell id="21" value="price" style="text;strokeColor=none;fillColor=none;spacingLeft=4;spacingRight=4;overflow=hidden;rotatable=0;points=[[0,0.5],[1,0.5]];portConstraint=eastwest;fontSize=12;fontColor=default;" parent="15" vertex="1">
                    <mxGeometry y="176" width="134" height="30" as="geometry"/>
                </mxCell>
                <mxCell id="22" value="publisher_percentage" style="text;strokeColor=none;fillColor=none;spacingLeft=4;spacingRight=4;overflow=hidden;rotatable=0;points=[[0,0.5],[1,0.5]];portConstraint=eastwest;fontSize=12;fontColor=default;" parent="15" vertex="1">
                    <mxGeometry y="206" width="134" height="30" as="geometry"/>
                </mxCell>
                <mxCell id="154" style="edgeStyle=none;html=1;entryX=0.5;entryY=0;entryDx=0;entryDy=0;endArrow=none;endFill=0;strokeWidth=3;" parent="1" source="40" target="164" edge="1">
                    <mxGeometry relative="1" as="geometry">
                        <Array as="points"/>
                    </mxGeometry>
                </mxCell>
                <mxCell id="178" style="edgeStyle=none;html=1;endArrow=none;endFill=0;strokeWidth=3;startArrow=none;startFill=0;" parent="1" source="40" edge="1">
                    <mxGeometry relative="1" as="geometry">
                        <mxPoint x="834" y="291" as="targetPoint"/>
                    </mxGeometry>
                </mxCell>
                <mxCell id="40" value="Collection" style="shape=rhombus;perimeter=rhombusPerimeter;whiteSpace=wrap;html=1;align=center;fontColor=default;" parent="1" vertex="1">
                    <mxGeometry x="791" y="329" width="86" height="41" as="geometry"/>
                </mxCell>
                <mxCell id="151" style="edgeStyle=none;html=1;entryX=1;entryY=0.5;entryDx=0;entryDy=0;endArrow=none;endFill=0;exitX=0;exitY=0.5;exitDx=0;exitDy=0;" parent="1" source="41" target="40" edge="1">
                    <mxGeometry relative="1" as="geometry"/>
                </mxCell>
                <mxCell id="41" value="&lt;span style=&quot;text-align: left&quot;&gt;quantity&lt;/span&gt;" style="ellipse;whiteSpace=wrap;html=1;align=center;fontColor=default;" parent="1" vertex="1">
                    <mxGeometry x="911" y="336" width="73" height="27" as="geometry"/>
                </mxCell>
                <mxCell id="77" value="Bank" style="swimlane;fontStyle=0;childLayout=stackLayout;horizontal=1;startSize=26;horizontalStack=0;resizeParent=1;resizeParentMax=0;resizeLast=0;collapsible=1;marginBottom=0;align=center;fontSize=14;fontColor=default;" parent="1" vertex="1">
                    <mxGeometry x="86.5" y="406" width="160" height="116" as="geometry"/>
                </mxCell>
                <mxCell id="78" value="account_number" style="text;strokeColor=none;fillColor=none;spacingLeft=4;spacingRight=4;overflow=hidden;rotatable=0;points=[[0,0.5],[1,0.5]];portConstraint=eastwest;fontSize=12;fontColor=default;fontStyle=4" parent="77" vertex="1">
                    <mxGeometry y="26" width="160" height="30" as="geometry"/>
                </mxCell>
                <mxCell id="79" value="balance" style="text;strokeColor=none;fillColor=none;spacingLeft=4;spacingRight=4;overflow=hidden;rotatable=0;points=[[0,0.5],[1,0.5]];portConstraint=eastwest;fontSize=12;fontColor=default;" parent="77" vertex="1">
                    <mxGeometry y="56" width="160" height="30" as="geometry"/>
                </mxCell>
                <mxCell id="80" value="password" style="text;strokeColor=none;fillColor=none;spacingLeft=4;spacingRight=4;overflow=hidden;rotatable=0;points=[[0,0.5],[1,0.5]];portConstraint=eastwest;fontSize=12;fontColor=default;" parent="77" vertex="1">
                    <mxGeometry y="86" width="160" height="30" as="geometry"/>
                </mxCell>
                <mxCell id="108" value="" style="html=1;fontColor=default;endArrow=none;endFill=0;exitX=0.5;exitY=1;exitDx=0;exitDy=0;strokeWidth=3;" parent="1" source="101" edge="1">
                    <mxGeometry relative="1" as="geometry">
                        <mxPoint x="122" y="404" as="targetPoint"/>
                    </mxGeometry>
                </mxCell>
                <mxCell id="114" style="edgeStyle=none;html=1;exitX=0.5;exitY=0;exitDx=0;exitDy=0;entryX=0.439;entryY=0.98;entryDx=0;entryDy=0;entryPerimeter=0;endArrow=classic;endFill=1;strokeWidth=3;" parent="1" source="101" target="12" edge="1">
                    <mxGeometry relative="1" as="geometry">
                        <mxPoint x="417.79999999999995" y="310" as="targetPoint"/>
                    </mxGeometry>
                </mxCell>
                <mxCell id="101" value="user_banking" style="shape=rhombus;perimeter=rhombusPerimeter;whiteSpace=wrap;html=1;align=center;fontColor=default;" parent="1" vertex="1">
                    <mxGeometry x="73" y="320" width="97" height="52" as="geometry"/>
                </mxCell>
                <mxCell id="115" value="Address" style="swimlane;fontStyle=0;childLayout=stackLayout;horizontal=1;startSize=26;horizontalStack=0;resizeParent=1;resizeParentMax=0;resizeLast=0;collapsible=1;marginBottom=0;align=center;fontSize=14;" parent="1" vertex="1">
                    <mxGeometry x="317" y="212" width="95" height="206" as="geometry"/>
                </mxCell>
                <mxCell id="121" value="postal_code" style="text;strokeColor=none;fillColor=none;spacingLeft=4;spacingRight=4;overflow=hidden;rotatable=0;points=[[0,0.5],[1,0.5]];portConstraint=eastwest;fontSize=12;fontStyle=4" parent="115" vertex="1">
                    <mxGeometry y="26" width="95" height="30" as="geometry"/>
                </mxCell>
                <mxCell id="116" value="unit_num" style="text;strokeColor=none;fillColor=none;spacingLeft=4;spacingRight=4;overflow=hidden;rotatable=0;points=[[0,0.5],[1,0.5]];portConstraint=eastwest;fontSize=12;" parent="115" vertex="1">
                    <mxGeometry y="56" width="95" height="30" as="geometry"/>
                </mxCell>
                <mxCell id="117" value="street_name" style="text;strokeColor=none;fillColor=none;spacingLeft=4;spacingRight=4;overflow=hidden;rotatable=0;points=[[0,0.5],[1,0.5]];portConstraint=eastwest;fontSize=12;" parent="115" vertex="1">
                    <mxGeometry y="86" width="95" height="30" as="geometry"/>
                </mxCell>
                <mxCell id="118" value="city" style="text;strokeColor=none;fillColor=none;spacingLeft=4;spacingRight=4;overflow=hidden;rotatable=0;points=[[0,0.5],[1,0.5]];portConstraint=eastwest;fontSize=12;" parent="115" vertex="1">
                    <mxGeometry y="116" width="95" height="30" as="geometry"/>
                </mxCell>
                <mxCell id="119" value="province" style="text;strokeColor=none;fillColor=none;spacingLeft=4;spacingRight=4;overflow=hidden;rotatable=0;points=[[0,0.5],[1,0.5]];portConstraint=eastwest;fontSize=12;" parent="115" vertex="1">
                    <mxGeometry y="146" width="95" height="30" as="geometry"/>
                </mxCell>
                <mxCell id="120" value="country" style="text;strokeColor=none;fillColor=none;spacingLeft=4;spacingRight=4;overflow=hidden;rotatable=0;points=[[0,0.5],[1,0.5]];portConstraint=eastwest;fontSize=12;" parent="115" vertex="1">
                    <mxGeometry y="176" width="95" height="30" as="geometry"/>
                </mxCell>
                <mxCell id="123" style="edgeStyle=none;html=1;endArrow=none;endFill=0;strokeWidth=3;entryX=0;entryY=0.5;entryDx=0;entryDy=0;" parent="1" source="122" target="116" edge="1">
                    <mxGeometry relative="1" as="geometry">
                        <mxPoint x="316" y="414" as="targetPoint"/>
                    </mxGeometry>
                </mxCell>
                <mxCell id="124" style="edgeStyle=none;html=1;endArrow=none;endFill=0;strokeWidth=3;exitX=0;exitY=0.5;exitDx=0;exitDy=0;" parent="1" source="122" edge="1">
                    <mxGeometry relative="1" as="geometry">
                        <mxPoint x="139" y="195" as="targetPoint"/>
                        <Array as="points">
                            <mxPoint x="139" y="287"/>
                        </Array>
                    </mxGeometry>
                </mxCell>
                <mxCell id="122" value="client_address" style="shape=rhombus;perimeter=rhombusPerimeter;whiteSpace=wrap;html=1;align=center;fontColor=default;" parent="1" vertex="1">
                    <mxGeometry x="152" y="263" width="109" height="48" as="geometry"/>
                </mxCell>
                <mxCell id="160" value="Publisher" style="swimlane;fontStyle=0;childLayout=stackLayout;horizontal=1;startSize=26;horizontalStack=0;resizeParent=1;resizeParentMax=0;resizeLast=0;collapsible=1;marginBottom=0;align=center;fontSize=14;" parent="1" vertex="1">
                    <mxGeometry x="448" y="429" width="116" height="206" as="geometry"/>
                </mxCell>
                <mxCell id="161" value="email_address" style="text;strokeColor=none;fillColor=none;spacingLeft=4;spacingRight=4;overflow=hidden;rotatable=0;points=[[0,0.5],[1,0.5]];portConstraint=eastwest;fontSize=12;fontStyle=4" parent="160" vertex="1">
                    <mxGeometry y="26" width="116" height="30" as="geometry"/>
                </mxCell>
                <mxCell id="162" value="{phone_number}" style="text;strokeColor=none;fillColor=none;spacingLeft=4;spacingRight=4;overflow=hidden;rotatable=0;points=[[0,0.5],[1,0.5]];portConstraint=eastwest;fontSize=12;" parent="160" vertex="1">
                    <mxGeometry y="56" width="116" height="30" as="geometry"/>
                </mxCell>
                <mxCell id="163" value="first_name" style="text;strokeColor=none;fillColor=none;spacingLeft=4;spacingRight=4;overflow=hidden;rotatable=0;points=[[0,0.5],[1,0.5]];portConstraint=eastwest;fontSize=12;" parent="160" vertex="1">
                    <mxGeometry y="86" width="116" height="30" as="geometry"/>
                </mxCell>
                <mxCell id="168" value="last_name" style="text;strokeColor=none;fillColor=none;spacingLeft=4;spacingRight=4;overflow=hidden;rotatable=0;points=[[0,0.5],[1,0.5]];portConstraint=eastwest;fontSize=12;" parent="160" vertex="1">
                    <mxGeometry y="116" width="116" height="30" as="geometry"/>
                </mxCell>
                <mxCell id="204" value="password" style="text;strokeColor=none;fillColor=none;spacingLeft=4;spacingRight=4;overflow=hidden;rotatable=0;points=[[0,0.5],[1,0.5]];portConstraint=eastwest;fontSize=12;" vertex="1" parent="160">
                    <mxGeometry y="146" width="116" height="30" as="geometry"/>
                </mxCell>
                <mxCell id="205" value="balance" style="text;strokeColor=none;fillColor=none;spacingLeft=4;spacingRight=4;overflow=hidden;rotatable=0;points=[[0,0.5],[1,0.5]];portConstraint=eastwest;fontSize=12;" vertex="1" parent="160">
                    <mxGeometry y="176" width="116" height="30" as="geometry"/>
                </mxCell>
                <mxCell id="164" value="Owner" style="swimlane;fontStyle=0;childLayout=stackLayout;horizontal=1;startSize=26;horizontalStack=0;resizeParent=1;resizeParentMax=0;resizeLast=0;collapsible=1;marginBottom=0;align=center;fontSize=14;" parent="1" vertex="1">
                    <mxGeometry x="786.5" y="498" width="95" height="176" as="geometry"/>
                </mxCell>
                <mxCell id="165" value="username" style="text;strokeColor=none;fillColor=none;spacingLeft=4;spacingRight=4;overflow=hidden;rotatable=0;points=[[0,0.5],[1,0.5]];portConstraint=eastwest;fontSize=12;fontStyle=4" parent="164" vertex="1">
                    <mxGeometry y="26" width="95" height="30" as="geometry"/>
                </mxCell>
                <mxCell id="166" value="first_name        " style="text;strokeColor=none;fillColor=none;spacingLeft=4;spacingRight=4;overflow=hidden;rotatable=0;points=[[0,0.5],[1,0.5]];portConstraint=eastwest;fontSize=12;" parent="164" vertex="1">
                    <mxGeometry y="56" width="95" height="30" as="geometry"/>
                </mxCell>
                <mxCell id="167" value="last_name" style="text;strokeColor=none;fillColor=none;spacingLeft=4;spacingRight=4;overflow=hidden;rotatable=0;points=[[0,0.5],[1,0.5]];portConstraint=eastwest;fontSize=12;" parent="164" vertex="1">
                    <mxGeometry y="86" width="95" height="30" as="geometry"/>
                </mxCell>
                <mxCell id="203" value="password" style="text;strokeColor=none;fillColor=none;spacingLeft=4;spacingRight=4;overflow=hidden;rotatable=0;points=[[0,0.5],[1,0.5]];portConstraint=eastwest;fontSize=12;" vertex="1" parent="164">
                    <mxGeometry y="116" width="95" height="30" as="geometry"/>
                </mxCell>
                <mxCell id="206" value="balance" style="text;strokeColor=none;fillColor=none;spacingLeft=4;spacingRight=4;overflow=hidden;rotatable=0;points=[[0,0.5],[1,0.5]];portConstraint=eastwest;fontSize=12;" vertex="1" parent="164">
                    <mxGeometry y="146" width="95" height="30" as="geometry"/>
                </mxCell>
                <mxCell id="180" style="edgeStyle=none;html=1;entryX=1;entryY=0.5;entryDx=0;entryDy=0;endArrow=block;endFill=1;strokeWidth=3;" parent="1" source="179" target="161" edge="1">
                    <mxGeometry relative="1" as="geometry"/>
                </mxCell>
                <mxCell id="181" style="edgeStyle=none;html=1;entryX=0.201;entryY=0.992;entryDx=0;entryDy=0;entryPerimeter=0;endArrow=none;endFill=0;strokeWidth=3;" parent="1" source="179" target="22" edge="1">
                    <mxGeometry relative="1" as="geometry"/>
                </mxCell>
                <mxCell id="179" value="publishes" style="shape=rhombus;perimeter=rhombusPerimeter;whiteSpace=wrap;html=1;align=center;fontColor=default;" parent="1" vertex="1">
                    <mxGeometry x="721" y="445" width="82" height="49" as="geometry"/>
                </mxCell>
                <mxCell id="183" style="edgeStyle=none;html=1;endArrow=none;endFill=0;strokeWidth=3;" parent="1" source="182" target="160" edge="1">
                    <mxGeometry relative="1" as="geometry"/>
                </mxCell>
                <mxCell id="184" style="edgeStyle=none;html=1;entryX=1.024;entryY=0.176;entryDx=0;entryDy=0;entryPerimeter=0;endArrow=block;endFill=1;strokeWidth=3;" parent="1" source="182" target="116" edge="1">
                    <mxGeometry relative="1" as="geometry">
                        <Array as="points">
                            <mxPoint x="506" y="273"/>
                        </Array>
                    </mxGeometry>
                </mxCell>
                <mxCell id="182" value="publisher_address" style="shape=rhombus;perimeter=rhombusPerimeter;whiteSpace=wrap;html=1;align=center;fontColor=default;" parent="1" vertex="1">
                    <mxGeometry x="430" y="333" width="152" height="42" as="geometry"/>
                </mxCell>
                <mxCell id="185" value="Order" style="swimlane;fontStyle=0;childLayout=stackLayout;horizontal=1;startSize=26;horizontalStack=0;resizeParent=1;resizeParentMax=0;resizeLast=0;collapsible=1;marginBottom=0;align=center;fontSize=14;" parent="1" vertex="1">
                    <mxGeometry x="452" y="17" width="98" height="146" as="geometry"/>
                </mxCell>
                <mxCell id="188" value="order_num" style="text;strokeColor=none;fillColor=none;spacingLeft=4;spacingRight=4;overflow=hidden;rotatable=0;points=[[0,0.5],[1,0.5]];portConstraint=eastwest;fontSize=12;fontStyle=4" parent="185" vertex="1">
                    <mxGeometry y="26" width="98" height="30" as="geometry"/>
                </mxCell>
                <mxCell id="187" value="tracking_info" style="text;strokeColor=none;fillColor=none;spacingLeft=4;spacingRight=4;overflow=hidden;rotatable=0;points=[[0,0.5],[1,0.5]];portConstraint=eastwest;fontSize=12;" parent="185" vertex="1">
                    <mxGeometry y="56" width="98" height="30" as="geometry"/>
                </mxCell>
                <mxCell id="190" value="order_date" style="text;strokeColor=none;fillColor=none;spacingLeft=4;spacingRight=4;overflow=hidden;rotatable=0;points=[[0,0.5],[1,0.5]];portConstraint=eastwest;fontSize=12;" parent="185" vertex="1">
                    <mxGeometry y="86" width="98" height="30" as="geometry"/>
                </mxCell>
                <mxCell id="191" value="total_price" style="text;strokeColor=none;fillColor=none;spacingLeft=4;spacingRight=4;overflow=hidden;rotatable=0;points=[[0,0.5],[1,0.5]];portConstraint=eastwest;fontSize=12;" parent="185" vertex="1">
                    <mxGeometry y="116" width="98" height="30" as="geometry"/>
                </mxCell>
                <mxCell id="196" style="edgeStyle=none;html=1;entryX=1;entryY=0.5;entryDx=0;entryDy=0;endArrow=none;endFill=0;strokeWidth=3;" parent="1" source="192" target="187" edge="1">
                    <mxGeometry relative="1" as="geometry"/>
                </mxCell>
                <mxCell id="197" style="edgeStyle=none;html=1;entryX=0;entryY=0.117;entryDx=0;entryDy=0;entryPerimeter=0;endArrow=none;endFill=0;" parent="1" source="192" target="16" edge="1">
                    <mxGeometry relative="1" as="geometry"/>
                </mxCell>
                <mxCell id="192" value="in_order" style="shape=rhombus;perimeter=rhombusPerimeter;whiteSpace=wrap;html=1;align=center;fontColor=default;" parent="1" vertex="1">
                    <mxGeometry x="609" y="61" width="70" height="49" as="geometry"/>
                </mxCell>
                <mxCell id="194" style="edgeStyle=none;html=1;endArrow=none;endFill=0;entryX=0.02;entryY=-0.127;entryDx=0;entryDy=0;entryPerimeter=0;strokeWidth=3;" parent="1" source="193" edge="1">
                    <mxGeometry relative="1" as="geometry">
                        <mxPoint x="453.96000000000004" y="69.19000000000005" as="targetPoint"/>
                    </mxGeometry>
                </mxCell>
                <mxCell id="195" style="edgeStyle=none;html=1;endArrow=classic;endFill=1;strokeWidth=1;" parent="1" source="193" edge="1">
                    <mxGeometry relative="1" as="geometry">
                        <mxPoint x="184" y="67" as="targetPoint"/>
                    </mxGeometry>
                </mxCell>
                <mxCell id="193" value="placed_order" style="shape=rhombus;perimeter=rhombusPerimeter;whiteSpace=wrap;html=1;align=center;fontColor=default;" parent="1" vertex="1">
                    <mxGeometry x="278" y="42" width="98" height="49" as="geometry"/>
                </mxCell>
                <mxCell id="199" style="edgeStyle=none;html=1;endArrow=none;endFill=0;strokeWidth=3;" parent="1" source="198" target="190" edge="1">
                    <mxGeometry relative="1" as="geometry"/>
                </mxCell>
                <mxCell id="200" style="edgeStyle=none;html=1;entryX=0.5;entryY=0;entryDx=0;entryDy=0;endArrow=classic;endFill=1;strokeWidth=1;" parent="1" source="198" target="115" edge="1">
                    <mxGeometry relative="1" as="geometry"/>
                </mxCell>
                <mxCell id="198" value="shipped_to" style="shape=rhombus;perimeter=rhombusPerimeter;whiteSpace=wrap;html=1;align=center;fontColor=default;" parent="1" vertex="1">
                    <mxGeometry x="318" y="91" width="93" height="49" as="geometry"/>
                </mxCell>
                <mxCell id="202" style="edgeStyle=none;html=1;entryX=0.5;entryY=1;entryDx=0;entryDy=0;endArrow=none;endFill=0;strokeWidth=1;" parent="1" source="201" target="192" edge="1">
                    <mxGeometry relative="1" as="geometry"/>
                </mxCell>
                <mxCell id="201" value="&lt;span style=&quot;text-align: left&quot;&gt;quantity&lt;/span&gt;" style="ellipse;whiteSpace=wrap;html=1;align=center;" parent="1" vertex="1">
                    <mxGeometry x="620" y="140" width="48" height="31" as="geometry"/>
                </mxCell>
            </root>
        </mxGraphModel>
    </diagram>
</mxfile>